<svg width="14" height="25" viewBox="0 0 14 25" fill="none" xmlns="http://www.w3.org/2000/svg">
<path d="M12.6667 4.6665H8.66667C7.93027 4.6665 7.33333 5.26346 7.33333 5.99984V9.99984H12.6667C12.8183 9.99648 12.9621 10.067 13.0523 10.189C13.1424 10.311 13.1677 10.4692 13.12 10.6132L12.1333 13.5465C12.0424 13.8157 11.7908 13.9977 11.5067 13.9998H7.33333V23.9998C7.33333 24.368 7.0348 24.6665 6.66667 24.6665H3.33333C2.96515 24.6665 2.66667 24.368 2.66667 23.9998V13.9998H0.666667C0.29848 13.9998 0 13.7013 0 13.3332V10.6665C0 10.2984 0.29848 9.99984 0.666667 9.99984H2.66667V5.99984C2.66667 3.05432 5.05453 0.666504 8 0.666504H12.6667C13.0348 0.666504 13.3333 0.964984 13.3333 1.33317V3.99984C13.3333 4.36802 13.0348 4.6665 12.6667 4.6665Z" fill="black"/>
</svg>
