<svg width="25" height="25" viewBox="0 0 25 25" fill="none" xmlns="http://www.w3.org/2000/svg">
<path fill-rule="evenodd" clip-rule="evenodd" d="M18.0001 0.666504H7.33341C3.65152 0.666504 0.666748 3.65128 0.666748 7.33317V17.9998C0.666748 21.6817 3.65152 24.6665 7.33341 24.6665H18.0001C21.6819 24.6665 24.6667 21.6817 24.6667 17.9998V7.33317C24.6667 3.65128 21.6819 0.666504 18.0001 0.666504ZM22.3334 17.9998C22.3261 20.39 20.3902 22.3258 18.0001 22.3332H7.33341C4.94321 22.3258 3.0074 20.39 3.00008 17.9998V7.33317C3.0074 4.94297 4.94321 3.00716 7.33341 2.99984H18.0001C20.3902 3.00716 22.3261 4.94297 22.3334 7.33317V17.9998ZM19.0001 7.6665C19.7365 7.6665 20.3334 7.06954 20.3334 6.33317C20.3334 5.5968 19.7365 4.99984 19.0001 4.99984C18.2637 4.99984 17.6667 5.5968 17.6667 6.33317C17.6667 7.06954 18.2637 7.6665 19.0001 7.6665ZM12.6667 6.6665C9.35304 6.6665 6.66675 9.3528 6.66675 12.6665C6.66675 15.9802 9.35304 18.6665 12.6667 18.6665C15.9805 18.6665 18.6667 15.9802 18.6667 12.6665C18.6703 11.0741 18.0393 9.54593 16.9133 8.41994C15.7873 7.29396 14.2591 6.66296 12.6667 6.6665ZM9.00008 12.6665C9.00008 14.6916 10.6417 16.3332 12.6667 16.3332C14.6918 16.3332 16.3334 14.6916 16.3334 12.6665C16.3334 10.6414 14.6918 8.99984 12.6667 8.99984C10.6417 8.99984 9.00008 10.6414 9.00008 12.6665Z" fill="black"/>
</svg>
