<svg width="25" height="25" viewBox="0 0 25 25" fill="none" xmlns="http://www.w3.org/2000/svg">
<path fill-rule="evenodd" clip-rule="evenodd" d="M3.33341 0.666504H22.0001C23.4729 0.666504 24.6667 1.86041 24.6667 3.33317V21.9998C24.6667 23.4726 23.4729 24.6665 22.0001 24.6665H3.33341C1.86065 24.6665 0.666748 23.4726 0.666748 21.9998V3.33317C0.666748 1.86041 1.86065 0.666504 3.33341 0.666504ZM7.33341 20.6665C7.7016 20.6665 8.00008 20.368 8.00008 19.9998V10.6665C8.00008 10.2984 7.7016 9.99984 7.33341 9.99984H5.33341C4.96523 9.99984 4.66675 10.2984 4.66675 10.6665V19.9998C4.66675 20.368 4.96523 20.6665 5.33341 20.6665H7.33341ZM6.33341 8.6665C5.22884 8.6665 4.33341 7.77108 4.33341 6.6665C4.33341 5.56193 5.22884 4.6665 6.33341 4.6665C7.43799 4.6665 8.33341 5.56193 8.33341 6.6665C8.33341 7.77108 7.43799 8.6665 6.33341 8.6665ZM20.0001 20.6665C20.3682 20.6665 20.6667 20.368 20.6667 19.9998V13.8665C20.7101 11.7476 19.1435 9.9392 17.0401 9.67984C15.5694 9.5455 14.1445 10.2324 13.3334 11.4665V10.6665C13.3334 10.2984 13.0349 9.99984 12.6667 9.99984H10.6667C10.2986 9.99984 10.0001 10.2984 10.0001 10.6665V19.9998C10.0001 20.368 10.2986 20.6665 10.6667 20.6665H12.6667C13.0349 20.6665 13.3334 20.368 13.3334 19.9998V14.9998C13.3334 13.8953 14.2289 12.9998 15.3334 12.9998C16.4379 12.9998 17.3334 13.8953 17.3334 14.9998V19.9998C17.3334 20.368 17.6319 20.6665 18.0001 20.6665H20.0001Z" fill="black"/>
</svg>
