<svg width="25" height="22" viewBox="0 0 25 22" fill="none" xmlns="http://www.w3.org/2000/svg">
<path d="M24.6304 3.62304C24.0112 4.44907 23.2627 5.16961 22.4137 5.75685C22.4137 5.97263 22.4137 6.1884 22.4137 6.41617C22.4205 10.3346 20.8553 14.092 18.0691 16.8458C15.2827 19.5997 11.5083 21.1197 7.59207 21.065C5.32799 21.0726 3.0929 20.5557 1.0619 19.5546C0.952376 19.5068 0.881749 19.3985 0.882163 19.2789V19.147C0.882163 18.9749 1.02164 18.8354 1.1937 18.8354C3.41923 18.762 5.56536 17.9904 7.32846 16.6297C5.31404 16.589 3.50159 15.3957 2.66747 13.5608C2.62535 13.4606 2.63846 13.3456 2.7021 13.2574C2.76572 13.1693 2.87067 13.1208 2.979 13.1293C3.59123 13.1908 4.20958 13.1338 4.80027 12.9614C2.57652 12.4998 0.905616 10.6537 0.666483 8.39411C0.657989 8.28571 0.706563 8.18077 0.794669 8.11704C0.882763 8.05344 0.997656 8.04024 1.09784 8.08251C1.69459 8.34584 2.33879 8.48451 2.99099 8.48997C1.04246 7.21112 0.200816 4.77857 0.942069 2.56813C1.01859 2.35335 1.20242 2.19467 1.426 2.15043C1.64958 2.10617 1.87995 2.18288 2.03243 2.35236C4.66186 5.15084 8.27472 6.81845 12.1092 7.00356C12.0111 6.61164 11.9628 6.20885 11.9655 5.8048C12.0013 3.68613 13.3123 1.79879 15.2845 1.02633C17.2567 0.253893 19.4999 0.749214 20.964 2.28043C21.9619 2.09031 22.9267 1.75511 23.8276 1.28545C23.8936 1.24425 23.9773 1.24425 24.0433 1.28545C24.0845 1.35148 24.0845 1.4352 24.0433 1.50123C23.6069 2.50053 22.8697 3.33867 21.9345 3.89876C22.7535 3.80379 23.558 3.6106 24.3309 3.32336C24.396 3.27907 24.4815 3.27907 24.5465 3.32336C24.6011 3.34829 24.6419 3.39599 24.658 3.45373C24.6741 3.51148 24.664 3.57341 24.6304 3.62304Z" fill="black"/>
</svg>
